<?xml version="1.0" standalone="no"?>
<!DOCTYPE svg PUBLIC "-//W3C//DTD SVG 20010904//EN"
 "http://www.w3.org/TR/2001/REC-SVG-20010904/DTD/svg10.dtd">
<svg version="1.0" xmlns="http://www.w3.org/2000/svg"
 width="900.000000pt" height="270.000000pt" viewBox="0 0 900.000000 270.000000"
 preserveAspectRatio="xMidYMid meet">
<metadata>
Created by potrace 1.10, written by Peter Selinger 2001-2011
</metadata>
<g transform="translate(0.000000,270.000000) scale(0.100000,-0.100000)"
fill="#000000" stroke="none">
<path d="M269 2164 c-5 -7 -8 -308 -7 -745 l3 -734 3358 -5 3358 -5 14 -25 c7
-14 35 -70 60 -125 86 -182 99 -207 112 -212 12 -5 84 36 223 127 41 27 104
68 140 90 36 23 101 65 145 93 l80 52 480 5 480 5 3 743 c1 408 -1 742 -5 742
-5 0 -1904 1 -4221 3 -3079 1 -4216 -1 -4223 -9z m4441 -487 c74 -33 124 -81
159 -152 57 -116 50 -221 -23 -331 -115 -175 -399 -194 -546 -37 -76 81 -85
103 -85 223 0 104 0 105 38 165 77 123 181 170 347 157 36 -2 85 -14 110 -25z
m975 -9 c33 -15 67 -38 77 -51 15 -22 15 -25 -19 -65 -19 -23 -41 -42 -48 -42
-8 0 -36 14 -63 31 -66 40 -114 46 -173 21 -86 -37 -132 -130 -110 -225 28
-124 145 -180 264 -127 26 11 49 25 52 30 12 20 42 9 78 -29 l37 -40 -22 -25
c-48 -52 -157 -96 -243 -96 -52 0 -123 18 -171 43 -44 23 -111 95 -135 146
-31 65 -37 172 -13 247 21 67 105 161 170 190 91 40 225 37 319 -8z m-4910
-50 c21 -46 53 -116 72 -156 19 -40 38 -84 43 -97 15 -40 37 -29 66 33 14 31
38 83 52 116 15 32 41 86 57 120 l30 61 88 3 87 3 0 -315 c0 -301 -1 -316 -19
-326 -27 -14 -94 -13 -109 2 -8 8 -12 66 -12 195 0 123 -4 183 -11 183 -9 0
-24 -30 -90 -180 -57 -129 -62 -135 -106 -138 -31 -2 -46 2 -60 17 -18 20
-123 256 -123 279 0 18 -27 15 -34 -4 -3 -9 -6 -91 -6 -184 0 -165 0 -168 -22
-174 -38 -10 -93 -7 -106 6 -9 9 -12 93 -12 318 0 169 3 310 7 313 3 4 43 7
88 7 l81 0 39 -82z m1105 -135 c51 -120 99 -234 107 -253 9 -19 22 -51 30 -70
9 -19 19 -43 24 -52 5 -10 9 -27 9 -38 0 -18 -7 -20 -66 -20 -81 0 -97 8 -114
60 -21 63 -38 70 -165 70 -60 0 -120 -3 -132 -6 -15 -4 -29 -24 -44 -59 -24
-59 -34 -65 -117 -65 -66 0 -71 11 -39 82 13 29 34 78 47 108 12 30 33 80 47
110 25 57 42 97 66 153 8 17 26 58 41 89 14 31 30 68 36 82 9 25 13 26 94 26
l84 0 92 -217z m417 -13 c1 -124 2 -237 3 -252 l0 -27 133 -3 132 -3 3 -53 c2
-31 -2 -60 -9 -68 -18 -22 -391 -20 -413 2 -14 13 -16 56 -16 318 0 166 3 306
7 310 4 4 41 5 83 4 l75 -3 2 -225z m777 208 c64 -24 137 -83 161 -131 22 -42
45 -130 45 -170 0 -40 -22 -121 -45 -164 -20 -40 -87 -99 -140 -123 -53 -24
-207 -42 -330 -38 l-100 3 -3 323 -2 322 179 0 c159 0 185 -2 235 -22z m454
-300 l-3 -323 -70 0 -70 0 -3 323 -2 322 75 0 75 0 -2 -322z m637 262 l0 -55
-88 -3 c-85 -3 -88 -4 -98 -29 -6 -15 -9 -123 -8 -255 0 -126 -2 -232 -5 -236
-11 -11 -121 -13 -136 -3 -12 9 -16 53 -20 263 l-5 253 -90 5 -90 5 -3 44 c-6
76 -23 72 275 69 l268 -3 0 -55z m1863 -70 c2 -84 7 -127 15 -132 21 -13 245
-10 254 5 4 6 10 66 13 132 l5 120 75 0 75 0 3 -300 c1 -165 0 -310 -3 -322
-5 -21 -11 -23 -68 -23 -36 0 -68 5 -75 12 -8 8 -12 49 -12 119 0 79 -4 110
-14 118 -9 8 -55 11 -137 9 l-124 -3 -5 -115 c-3 -63 -9 -121 -13 -127 -11
-17 -119 -17 -135 -1 -9 9 -12 93 -12 318 0 169 3 310 7 314 4 4 39 5 78 4
l70 -3 3 -125z m677 10 l0 -115 -52 -3 c-29 -2 -53 1 -53 5 -1 18 -1 209 -1
221 1 9 16 12 54 10 l52 -3 0 -115z m527 88 c24 -49 38 -82 138 -323 51 -121
97 -230 102 -242 19 -39 4 -53 -54 -53 -82 0 -93 6 -119 63 -13 29 -28 55 -34
59 -16 12 -244 9 -267 -3 -11 -6 -29 -31 -39 -55 -11 -24 -29 -49 -41 -55 -21
-11 -122 -8 -135 4 -3 4 -1 19 6 35 7 15 19 41 25 57 7 17 20 46 29 65 54 119
77 172 77 180 0 5 7 21 15 37 8 15 24 51 36 78 12 28 31 70 41 95 11 25 24 55
29 68 8 20 15 22 92 22 l84 0 15 -32z m488 -87 c0 -90 3 -121 14 -130 11 -9
17 -8 29 9 8 11 29 37 48 58 19 20 63 70 98 110 l63 72 84 0 c66 0 84 -3 84
-14 0 -8 -3 -16 -7 -18 -5 -1 -46 -46 -93 -98 -47 -52 -91 -101 -97 -108 -7
-7 -13 -19 -13 -26 0 -11 167 -269 210 -324 11 -13 20 -33 20 -43 0 -17 -8
-19 -72 -18 -40 0 -81 4 -91 8 -10 3 -53 58 -95 121 -42 63 -84 116 -93 118
-9 2 -31 -17 -52 -44 -35 -44 -37 -52 -37 -119 0 -81 -3 -85 -83 -85 -81 0
-77 -19 -77 335 l0 315 80 0 80 0 0 -119z m698 -195 c2 -219 -1 -313 -9 -322
-13 -16 -124 -20 -134 -5 -4 7 -8 499 -5 629 0 10 18 12 73 10 l72 -3 3 -309z"/>
<path d="M4479 1555 c-25 -13 -51 -30 -58 -39 -80 -96 -63 -230 37 -300 36
-26 53 -31 100 -31 65 0 103 21 150 82 24 32 27 45 27 112 0 99 -22 136 -107
181 -49 26 -92 25 -149 -5z"/>
<path d="M1681 1507 c-6 -6 -11 -16 -11 -23 0 -11 -29 -83 -52 -131 -21 -43
-6 -53 81 -53 85 0 100 8 83 43 -21 43 -49 113 -55 138 -8 31 -29 43 -46 26z"/>
<path d="M2822 1568 c-8 -8 -12 -65 -12 -190 0 -210 -4 -204 117 -195 60 4 81
11 109 32 58 45 74 79 74 165 -1 65 -4 80 -28 115 -39 57 -99 85 -182 85 -38
0 -71 -5 -78 -12z"/>
<path d="M7107 1504 c-4 -4 -7 -16 -7 -27 0 -10 -6 -31 -14 -45 -29 -56 -48
-111 -42 -121 4 -6 40 -11 87 -11 62 0 81 3 85 15 4 8 2 21 -4 28 -5 6 -15 28
-20 47 -26 85 -41 115 -59 118 -10 2 -22 0 -26 -4z"/>
</g>
</svg>
