<?xml version="1.0" standalone="no"?>
<!DOCTYPE svg PUBLIC "-//W3C//DTD SVG 20010904//EN"
 "http://www.w3.org/TR/2001/REC-SVG-20010904/DTD/svg10.dtd">
<svg version="1.0" xmlns="http://www.w3.org/2000/svg"
 width="300.000000pt" height="68.000000pt" viewBox="0 0 300.000000 68.000000"
 preserveAspectRatio="xMidYMid meet">
<metadata>
Created by potrace 1.10, written by Peter Selinger 2001-2011
</metadata>
<g transform="translate(0.000000,68.000000) scale(0.100000,-0.100000)"
fill="#ffffff" stroke="none">
<path d="M20 400 l0 -260 1183 0 1183 0 33 -69 34 -69 108 69 108 69 167 0
c92 0 164 3 160 7 -4 4 -75 8 -159 8 -170 1 -185 -3 -310 -86 -32 -22 -62 -39
-66 -39 -5 0 -19 25 -32 55 -17 39 -31 57 -48 62 -13 3 -546 6 -1185 7 l-1161
1 0 245 0 245 1483 0 c815 0 1482 3 1482 8 0 4 -670 7 -1490 7 l-1490 0 0
-260z"/>
<path d="M120 385 l0 -115 31 0 31 0 -7 76 c-5 55 -4 74 4 70 6 -4 11 -13 11
-20 0 -8 9 -34 20 -60 28 -62 52 -62 80 0 11 26 20 52 20 60 0 7 5 16 11 20 8
5 10 -15 7 -70 l-3 -76 27 0 28 0 0 115 0 115 -34 0 c-31 0 -35 -4 -60 -59
-14 -32 -26 -64 -26 -70 0 -6 -4 -11 -10 -11 -5 0 -10 5 -10 11 0 6 -12 38
-26 70 -25 55 -29 59 -60 59 l-34 0 0 -115z m60 61 c0 -8 -7 -16 -15 -20 -10
-4 -15 1 -15 14 0 11 7 20 15 20 8 0 15 -6 15 -14z m160 -1 c0 -8 -4 -15 -10
-15 -5 0 -10 7 -10 15 0 8 5 15 10 15 6 0 10 -7 10 -15z"/>
<path d="M491 483 c-11 -22 -91 -211 -91 -216 0 -2 14 -1 31 1 20 3 33 12 36
23 4 16 15 19 58 19 45 0 55 -3 60 -20 5 -14 15 -20 37 -20 21 0 29 4 25 13
-3 8 -24 59 -47 115 -40 95 -44 102 -71 102 -17 0 -32 -7 -38 -17z m68 -125
c1 -5 -15 -8 -35 -8 -20 0 -34 3 -32 8 2 4 10 24 18 45 l15 39 17 -39 c9 -21
17 -41 17 -45z m41 -31 c0 -5 -4 -5 -10 -2 -5 3 -10 14 -10 23 0 15 2 15 10 2
5 -8 10 -19 10 -23z m-139 0 c-10 -9 -11 -8 -5 6 3 10 9 15 12 12 3 -3 0 -11
-7 -18z"/>
<path d="M680 385 l0 -115 78 0 c76 0 77 0 78 26 2 24 0 25 -48 23 l-51 -3 2
92 2 92 -30 0 -31 0 0 -115z"/>
<path d="M860 385 l0 -115 71 0 c107 0 149 33 149 118 0 74 -54 112 -160 112
l-60 0 0 -115z m142 48 c11 -10 18 -30 18 -54 0 -44 -27 -69 -72 -69 -28 0
-28 0 -28 70 l0 70 32 0 c17 0 40 -7 50 -17z"/>
<path d="M1115 385 l0 -115 30 0 30 0 0 115 0 115 -30 0 -30 0 0 -115z"/>
<path d="M1200 475 c0 -22 4 -25 35 -25 l35 0 0 -90 0 -90 30 0 30 0 0 90 0
90 35 0 c31 0 35 3 35 25 0 25 0 25 -100 25 -100 0 -100 0 -100 -25z m110 -15
c0 -5 -4 -10 -10 -10 -5 0 -10 5 -10 10 0 6 5 10 10 10 6 0 10 -4 10 -10z"/>
<path d="M1468 485 c-15 -9 -35 -29 -43 -45 -49 -95 33 -194 140 -170 46 10
71 33 85 76 25 75 -24 144 -107 151 -31 2 -58 -2 -75 -12z m106 -51 c38 -38
24 -104 -25 -119 -31 -10 -73 24 -77 63 -6 57 64 95 102 56z"/>
<path d="M1813 484 c-33 -17 -63 -66 -63 -106 0 -30 33 -84 61 -99 34 -18 94
-14 129 8 30 19 30 19 10 38 -16 14 -23 15 -34 6 -25 -21 -79 -9 -95 21 -34
60 29 121 88 87 26 -15 29 -15 39 2 16 26 16 26 -18 44 -37 19 -76 19 -117 -1z"/>
<path d="M1990 385 l0 -115 30 0 c29 0 30 2 30 45 l0 45 50 0 50 0 0 -45 c0
-43 1 -45 30 -45 l30 0 0 115 0 115 -30 0 c-29 0 -30 -1 -30 -50 l0 -50 -50 0
-50 0 0 50 c0 49 -1 50 -30 50 l-30 0 0 -115z m41 -18 c-10 -9 -11 -8 -5 6 3
10 9 15 12 12 3 -3 0 -11 -7 -18z"/>
<path d="M2250 455 c0 -40 2 -45 23 -45 20 0 22 4 19 45 -3 36 -8 45 -23 45
-16 0 -19 -7 -19 -45z"/>
<path d="M2363 386 l-51 -116 33 0 c24 0 34 5 38 20 4 17 14 20 57 20 43 0 53
-3 57 -19 3 -13 16 -20 39 -23 19 -2 34 -4 34 -3 0 0 -22 52 -48 115 -46 108
-51 115 -79 118 -29 3 -31 0 -80 -112z m92 18 c21 -50 19 -54 -16 -54 -28 0
-31 2 -24 23 3 12 9 32 12 45 7 30 10 28 28 -14z m-65 -64 c0 -5 -5 -10 -11
-10 -5 0 -7 5 -4 10 3 6 8 10 11 10 2 0 4 -4 4 -10z m120 0 c0 -5 -4 -10 -10
-10 -5 0 -10 5 -10 10 0 6 5 10 10 10 6 0 10 -4 10 -10z"/>
<path d="M2590 385 l0 -115 30 0 c26 0 30 4 30 28 0 15 7 35 14 44 12 16 16
14 44 -26 25 -35 39 -45 67 -48 19 -2 35 -2 35 0 0 2 -21 32 -46 68 l-46 64
41 45 c23 25 41 47 41 50 0 3 -15 5 -32 5 -27 -1 -40 -10 -73 -50 -22 -28 -42
-50 -45 -50 -3 0 -3 22 -2 50 4 50 4 50 -27 50 l-31 0 0 -115z m114 -14 c-9
-10 -26 18 -18 30 5 9 9 8 14 -7 4 -10 6 -21 4 -23z m-62 -16 c-9 -11 -18 -22
-19 -24 -2 -2 -3 12 -3 32 0 34 1 36 20 25 18 -12 18 -13 2 -33z"/>
<path d="M2840 385 l0 -115 30 0 30 0 0 115 0 115 -30 0 -30 0 0 -115z"/>
</g>
</svg>
