<?xml version="1.0" standalone="no"?>
<!DOCTYPE svg PUBLIC "-//W3C//DTD SVG 20010904//EN"
 "http://www.w3.org/TR/2001/REC-SVG-20010904/DTD/svg10.dtd">
<svg version="1.0" xmlns="http://www.w3.org/2000/svg"
 width="900.000000pt" height="900.000000pt" viewBox="0 0 900.000000 900.000000"
 preserveAspectRatio="xMidYMid meet">
<metadata>
Created by potrace 1.10, written by Peter Selinger 2001-2011
</metadata>
<g transform="translate(0.000000,900.000000) scale(0.100000,-0.100000)"
fill="#000000" stroke="none">
<path d="M8690 7943 c-58 -1 -172 -7 -255 -14 -82 -6 -251 -14 -375 -19 -269
-11 -579 -26 -826 -41 -99 -6 -277 -14 -395 -19 -225 -9 -511 -23 -819 -41
-102 -6 -279 -14 -395 -19 -389 -16 -669 -31 -890 -45 -121 -8 -261 -15 -312
-15 -51 0 -147 -5 -215 -10 -68 -6 -229 -14 -358 -20 -326 -13 -623 -28 -905
-45 -132 -9 -284 -15 -337 -15 -53 0 -152 -5 -220 -10 -68 -6 -229 -14 -358
-20 -294 -12 -602 -27 -835 -41 -99 -6 -277 -15 -395 -19 -273 -11 -631 -30
-648 -35 -16 -6 -16 -70 3 -230 8 -71 21 -202 30 -290 8 -88 20 -199 26 -247
6 -48 14 -134 19 -190 4 -57 13 -150 19 -208 7 -58 18 -175 27 -260 8 -85 19
-194 25 -241 5 -47 14 -135 19 -195 5 -60 13 -149 19 -199 6 -49 17 -162 26
-250 8 -88 20 -199 26 -247 6 -48 14 -134 19 -190 9 -111 25 -272 41 -408 5
-47 14 -134 19 -195 5 -60 14 -153 19 -205 6 -52 18 -165 26 -250 9 -85 20
-198 26 -250 6 -52 14 -138 19 -190 17 -190 31 -327 46 -440 8 -63 14 -140 15
-170 0 -82 14 -152 32 -165 12 -8 162 -14 534 -18 285 -3 705 -11 933 -17 485
-12 1281 -27 2120 -40 327 -5 750 -14 940 -20 190 -5 418 -10 507 -10 170 0
184 -4 165 -43 -5 -12 -24 -58 -42 -102 -17 -44 -38 -93 -45 -110 -7 -16 -23
-55 -34 -85 -12 -30 -26 -64 -31 -75 -4 -11 -18 -45 -30 -75 -11 -30 -25 -64
-29 -75 -5 -11 -23 -56 -41 -100 -17 -44 -38 -93 -45 -110 -7 -16 -26 -64 -43
-105 -16 -41 -50 -124 -75 -185 -74 -180 -107 -263 -107 -269 0 -17 39 6 226
132 113 75 216 144 229 152 13 8 178 119 366 245 188 127 374 251 413 277 39
27 79 54 90 60 10 7 29 21 41 31 13 9 28 17 33 17 6 0 12 3 14 8 3 7 72 57
106 77 9 6 70 46 135 90 65 44 129 87 142 95 13 8 59 39 102 69 l78 54 548
-12 c301 -6 576 -14 611 -18 56 -5 65 -3 74 14 6 10 15 100 21 198 26 420 32
542 42 750 5 121 14 270 19 330 5 61 10 151 10 200 0 50 6 187 15 305 16 231
30 488 45 830 6 118 14 268 20 332 5 64 10 156 10 205 0 48 6 185 14 303 17
237 33 535 46 820 5 102 13 262 19 355 17 267 31 543 41 755 9 200 6 222 -29
218 -9 -1 -63 -3 -121 -5z m-785 -1493 c210 -75 338 -198 408 -393 30 -84 32
-305 4 -382 -66 -178 -171 -299 -320 -369 -115 -54 -180 -68 -316 -68 -136 0
-202 14 -318 68 -161 76 -294 241 -328 407 -25 125 -26 155 -9 249 43 236 187
403 419 484 78 27 130 33 270 29 100 -3 144 -9 190 -25z m-6815 -47 c18 -38
40 -86 50 -108 10 -22 39 -84 64 -138 25 -54 46 -100 46 -102 0 -2 18 -43 41
-92 22 -48 52 -112 66 -141 13 -29 29 -52 34 -50 13 4 30 34 70 123 36 80 64
142 106 235 17 36 49 108 73 160 23 52 47 99 51 104 5 6 9 18 9 27 0 43 23 49
196 49 l164 0 -2 -612 -3 -613 -130 0 -130 0 -3 375 c-2 347 -8 430 -28 374
-4 -10 -17 -41 -29 -69 -12 -27 -41 -95 -65 -149 -23 -54 -45 -106 -50 -115
-4 -9 -23 -52 -41 -96 -18 -44 -39 -89 -46 -100 -7 -11 -13 -26 -13 -35 -1 -8
-9 -25 -19 -37 -17 -21 -28 -23 -114 -23 l-96 0 -22 48 c-12 26 -29 63 -37 82
-8 19 -18 42 -22 51 -5 8 -34 76 -65 149 -31 73 -61 141 -65 149 -5 9 -18 41
-30 71 -23 55 -37 73 -52 64 -4 -3 -8 -169 -8 -369 0 -322 -2 -364 -16 -369
-9 -3 -64 -6 -124 -6 -85 0 -112 3 -124 16 -14 14 -16 83 -16 608 0 326 3 596
7 599 3 4 82 7 174 7 l168 0 31 -67z m1861 47 c4 -8 17 -35 28 -60 51 -116 71
-163 71 -171 0 -5 13 -37 29 -71 15 -35 56 -130 90 -213 35 -82 69 -165 77
-182 8 -18 21 -49 29 -68 43 -98 160 -380 169 -409 4 -11 1 -23 -6 -28 -7 -4
-74 -8 -148 -8 -107 0 -140 3 -158 16 -12 8 -22 21 -22 29 0 15 -22 69 -46
117 -8 14 -14 33 -14 42 0 30 -49 36 -289 36 -271 0 -253 5 -291 -90 -11 -30
-28 -68 -36 -83 -8 -16 -14 -35 -14 -42 0 -7 -7 -16 -16 -19 -23 -9 -277 -7
-292 2 -12 8 -2 54 26 108 12 26 48 106 86 197 7 17 25 57 39 87 13 30 35 80
47 110 12 30 25 62 30 70 4 9 67 155 140 325 73 171 134 313 137 318 2 4 77 6
165 5 131 -2 162 -6 169 -18z m849 -460 l5 -475 244 -3 c160 -1 249 -6 258
-13 17 -15 19 -229 1 -247 -17 -17 -789 -17 -806 0 -9 9 -12 158 -12 608 0
328 3 600 7 604 4 3 72 5 152 4 l146 -3 5 -475z m1306 461 c161 -43 285 -132
366 -261 64 -102 104 -260 93 -365 -10 -94 -43 -214 -70 -255 -5 -8 -17 -27
-25 -41 -73 -129 -210 -219 -405 -266 -79 -20 -632 -31 -664 -14 -21 12 -21
12 -21 610 0 329 3 601 7 604 3 4 151 7 327 7 283 0 329 -3 392 -19z m852
-586 c2 -555 1 -601 -15 -612 -21 -16 -255 -18 -284 -3 -18 10 -19 28 -19 609
0 329 3 601 7 605 4 3 75 5 157 4 l151 -3 3 -600z m1090 491 c1 -62 -2 -114
-7 -119 -6 -6 -75 -9 -165 -8 -97 1 -163 -2 -176 -9 -20 -11 -20 -18 -20 -489
0 -427 -2 -480 -16 -485 -30 -12 -269 -7 -282 6 -9 9 -12 130 -12 485 0 462 0
473 -20 483 -12 6 -81 10 -175 9 -85 0 -159 2 -165 6 -11 7 -14 217 -3 228 3
4 239 6 522 5 l516 -3 3 -109z m-4892 -1675 c62 -17 153 -56 220 -94 42 -24
104 -82 102 -94 -2 -7 -39 -55 -83 -107 -87 -104 -85 -103 -147 -46 -18 17
-62 45 -98 63 -59 29 -73 31 -155 30 -110 -1 -163 -22 -235 -93 -77 -78 -93
-123 -93 -255 0 -91 3 -118 21 -156 69 -147 225 -228 377 -195 71 15 112 35
182 87 29 22 56 39 62 39 10 0 163 -164 170 -181 5 -16 -26 -44 -104 -98 -157
-106 -348 -152 -507 -121 -153 30 -251 81 -353 184 -117 118 -175 261 -175
436 0 114 16 183 67 287 27 55 165 213 186 213 6 0 18 6 26 14 30 27 124 69
195 87 98 24 250 24 342 0z m1614 -607 l0 -605 -152 3 -153 3 -5 230 -5 230
-238 5 c-132 3 -244 2 -250 -2 -8 -5 -14 -79 -17 -235 l-5 -228 -155 0 -155 0
-3 575 c-1 316 0 590 3 608 l6 33 152 -3 152 -3 5 -245 5 -245 250 0 250 0 5
245 c3 135 7 246 8 247 7 7 279 6 290 -1 9 -7 12 -141 12 -612z m2374 593 c3
-12 6 -125 6 -250 0 -194 2 -228 14 -225 13 3 131 132 364 397 97 110 74 101
264 101 105 0 168 -4 168 -10 0 -9 -57 -79 -86 -105 -6 -5 -42 -46 -80 -90
-37 -44 -73 -85 -79 -91 -55 -58 -172 -190 -178 -201 -9 -14 9 -42 346 -541
64 -94 117 -174 117 -177 0 -3 -83 -5 -184 -5 l-183 0 -129 193 c-70 105 -143
211 -162 235 l-34 43 -52 -57 c-28 -32 -63 -72 -78 -88 -27 -29 -28 -33 -30
-175 l-3 -146 -152 -3 -153 -3 0 610 c0 391 4 611 10 613 5 2 72 2 149 0 133
-3 139 -4 145 -25z m1316 4 c0 -48 0 -1178 0 -1188 0 -10 -37 -13 -150 -13
l-150 0 0 610 0 609 138 3 c154 3 162 2 162 -21z m-3225 -3 c3 -13 4 -117 3
-233 l-3 -210 -110 0 -110 0 -3 220 c-1 121 0 225 2 232 4 9 35 13 110 13 101
0 106 -1 111 -22z m966 2 c4 -8 17 -40 29 -70 12 -30 32 -77 45 -105 12 -27
57 -133 100 -235 42 -102 83 -198 90 -215 8 -16 55 -129 106 -250 50 -121 101
-239 112 -263 12 -28 16 -47 10 -53 -5 -5 -75 -8 -163 -7 -124 2 -154 6 -160
18 -21 41 -70 164 -70 175 0 7 -7 16 -16 19 -9 3 -127 6 -263 6 -183 0 -251
-3 -263 -12 -15 -12 -26 -36 -75 -160 l-18 -48 -157 0 c-87 0 -158 4 -158 8 0
5 11 32 25 60 14 29 25 58 25 65 0 7 4 17 9 22 5 6 19 35 31 65 12 30 28 69
36 85 48 109 64 146 84 195 12 30 25 62 30 71 4 8 40 91 80 184 40 93 76 176
80 184 5 9 23 52 41 96 18 44 39 89 46 100 7 11 13 26 13 34 0 8 8 23 17 33
15 17 31 18 171 16 126 -2 156 -6 163 -18z"/>
<path d="M7585 6208 c-102 -36 -188 -118 -224 -216 -32 -86 -27 -213 12 -292
93 -190 319 -262 484 -153 107 71 163 177 163 313 0 166 -98 305 -246 348 -49
14 -147 14 -189 0z"/>
<path d="M2754 6124 c-12 -37 -58 -160 -79 -209 -7 -16 -21 -50 -30 -75 -9
-25 -24 -59 -32 -77 -8 -17 -12 -36 -9 -42 10 -15 308 -15 323 0 8 8 4 29 -14
78 -14 36 -34 89 -45 116 -40 104 -49 131 -59 161 -5 17 -18 39 -29 49 -19 17
-20 17 -26 -1z"/>
<path d="M4712 6222 c-9 -6 -12 -86 -10 -363 l3 -354 160 0 c158 0 161 0 207
28 114 68 168 171 168 321 0 178 -75 298 -220 351 -51 19 -287 32 -308 17z"/>
<path d="M5004 4344 c-11 -36 -61 -167 -79 -209 -7 -16 -19 -48 -28 -70 -8
-22 -23 -59 -32 -83 -10 -23 -15 -45 -12 -48 3 -4 77 -6 164 -6 156 0 158 0
161 22 2 13 -4 41 -13 64 -10 23 -23 58 -31 79 -89 240 -116 293 -130 251z"/>
</g>
</svg>
