<?xml version="1.0" standalone="no"?>
<!DOCTYPE svg PUBLIC "-//W3C//DTD SVG 20010904//EN"
 "http://www.w3.org/TR/2001/REC-SVG-20010904/DTD/svg10.dtd">
<svg version="1.0" xmlns="http://www.w3.org/2000/svg"
 width="300.000000pt" height="90.000000pt" viewBox="0 0 300.000000 90.000000"
 preserveAspectRatio="xMidYMid meet">
<metadata>
Created by potrace 1.10, written by Peter Selinger 2001-2011
</metadata>
<g transform="translate(0.000000,90.000000) scale(0.100000,-0.100000)"
fill="#fffaf0" stroke="none">
<path d="M90 480 l0 -250 1123 0 1122 -1 29 -63 28 -64 98 64 98 64 161 0 161
0 0 250 0 250 -1410 0 -1410 0 0 -250z m2810 -2 l0 -228 -153 0 -153 0 -99
-62 c-54 -34 -100 -58 -102 -52 -2 5 -16 32 -31 59 l-27 50 -1113 3 -1112 2 0
230 0 230 1395 -2 1395 -3 0 -227z"/>
<path d="M2685 572 c-21 -3 -40 -17 -65 -47 -19 -24 -37 -44 -40 -44 -3 -1 -4
19 -2 44 4 44 4 45 -27 45 l-31 0 0 -110 0 -110 30 0 c27 0 30 3 30 34 0 18 6
39 14 45 11 9 19 3 42 -34 25 -38 34 -45 62 -45 17 0 32 2 32 5 0 2 -21 34
-46 70 -25 36 -42 65 -37 65 9 0 77 80 72 83 -2 1 -17 1 -34 -1z m-118 -139
c-16 -16 -17 -15 -17 17 0 32 1 33 17 17 16 -16 16 -18 0 -34z"/>
<path d="M190 460 l0 -110 26 0 c25 0 26 0 21 68 -3 37 -8 79 -12 95 -5 18 -4
27 4 27 7 0 11 -8 10 -17 -1 -10 3 -29 8 -43 6 -14 18 -44 28 -67 14 -36 20
-41 37 -34 13 4 29 28 40 57 29 73 33 71 30 -11 -4 -75 -3 -75 22 -75 l26 0 0
110 0 110 -32 0 c-31 0 -35 -4 -58 -60 -14 -33 -28 -60 -31 -60 -3 0 -17 27
-32 60 -23 55 -28 60 -56 60 l-31 0 0 -110z m197 58 c-3 -8 -6 -5 -6 6 -1 11
2 17 5 13 3 -3 4 -12 1 -19z"/>
<path d="M502 477 c-61 -137 -59 -127 -24 -127 23 0 31 5 35 23 5 19 13 22 56
22 44 0 51 -3 56 -22 4 -18 13 -23 35 -23 17 0 30 3 29 8 0 4 -20 52 -43 107
-39 93 -44 100 -73 103 -29 3 -31 0 -71 -91z m82 9 c3 -13 8 -30 11 -38 4 -9
-4 -13 -25 -13 -35 0 -34 -2 -18 42 14 39 24 42 32 9z"/>
<path d="M710 460 l0 -110 75 0 c73 0 75 1 75 25 0 23 -4 25 -45 25 l-45 0 0
85 0 85 -30 0 -30 0 0 -110z"/>
<path d="M890 460 l0 -110 43 0 c123 0 196 75 153 158 -25 49 -52 62 -128 62
l-68 0 0 -110z m130 50 c43 -43 14 -110 -47 -110 l-33 0 0 65 0 65 30 0 c17 0
39 -9 50 -20z"/>
<path d="M1130 460 l0 -110 25 0 25 0 0 110 0 110 -25 0 -25 0 0 -110z"/>
<path d="M1210 550 c0 -16 7 -20 33 -20 l32 0 -3 -90 -3 -90 30 0 31 0 0 90 0
90 35 0 c28 0 35 4 35 20 0 19 -7 20 -95 20 -88 0 -95 -1 -95 -20z"/>
<path d="M1447 550 c-38 -30 -52 -80 -33 -124 16 -38 67 -76 104 -76 40 0 90
28 106 59 26 50 21 88 -18 127 -30 30 -41 34 -84 34 -34 0 -57 -6 -75 -20z
m111 -36 c46 -32 18 -114 -39 -114 -54 0 -78 72 -37 110 26 24 46 25 76 4z"/>
<path d="M1778 553 c-74 -46 -61 -159 21 -193 34 -14 86 -7 116 15 17 13 17
17 4 30 -12 12 -20 13 -45 3 -38 -14 -58 -7 -80 27 -34 53 29 115 81 81 25
-17 27 -17 41 1 33 43 -78 73 -138 36z"/>
<path d="M1960 460 l0 -110 25 0 c23 0 25 4 25 45 l0 45 49 0 49 0 -6 -45 c-5
-45 -4 -45 27 -45 l31 0 0 110 0 110 -31 0 -32 0 6 -45 7 -45 -51 0 -51 0 4
45 c3 43 2 45 -24 45 l-28 0 0 -110z m167 -12 c-3 -8 -6 -5 -6 6 -1 11 2 17 5
13 3 -3 4 -12 1 -19z"/>
<path d="M2200 530 c0 -33 3 -40 20 -40 17 0 20 7 20 40 0 33 -3 40 -20 40
-17 0 -20 -7 -20 -40z"/>
<path d="M2310 473 c-23 -54 -44 -104 -47 -110 -3 -9 5 -13 25 -13 23 0 31 5
35 23 5 19 13 22 57 22 44 0 52 -3 57 -22 4 -17 12 -23 34 -23 16 0 29 3 28 8
0 4 -20 52 -43 107 -39 93 -44 100 -73 103 -29 3 -31 0 -73 -95z m84 13 c3
-13 8 -30 11 -38 4 -9 -4 -13 -25 -13 -35 0 -34 -2 -18 42 14 39 24 42 32 9z"/>
<path d="M2758 460 c3 -109 3 -110 28 -110 24 0 24 0 24 110 l0 110 -27 0 -28
0 3 -110z"/>
</g>
</svg>
