<?xml version="1.0" standalone="no"?>
<!DOCTYPE svg PUBLIC "-//W3C//DTD SVG 20010904//EN"
 "http://www.w3.org/TR/2001/REC-SVG-20010904/DTD/svg10.dtd">
<svg version="1.0" xmlns="http://www.w3.org/2000/svg"
 width="900.000000pt" height="150.000000pt" viewBox="0 0 900.000000 150.000000"
 preserveAspectRatio="xMidYMid meet">
<metadata>
Created by potrace 1.10, written by Peter Selinger 2001-2011
</metadata>
<g transform="translate(0.000000,150.000000) scale(0.100000,-0.100000)"
fill="#f6e143" stroke="none">
<path d="M5344 1261 c-46 -15 -105 -52 -144 -91 -22 -22 -80 -118 -80 -133 0
-6 -8 -25 -17 -42 -25 -44 -25 -346 0 -390 9 -16 17 -36 17 -43 0 -12 54 -99
82 -132 49 -58 164 -110 243 -110 76 0 168 40 226 99 54 55 110 231 88 273
-21 40 -38 17 -63 -83 -38 -155 -114 -229 -235 -229 -76 0 -110 26 -140 108
-22 57 -22 71 -19 335 2 204 6 279 16 289 6 6 12 20 12 31 0 10 13 32 29 48
53 53 152 34 218 -41 31 -35 78 -133 101 -210 16 -57 22 -65 43 -65 l24 0 3
187 c2 183 2 187 -19 199 -19 10 -25 7 -45 -17 -13 -16 -23 -32 -24 -36 -1
-18 -45 -4 -90 28 -28 20 -106 44 -140 43 -19 -1 -58 -8 -86 -18z"/>
<path d="M6599 1261 c-27 -21 -29 -56 -15 -191 9 -83 26 -120 56 -120 26 0 35
24 49 130 6 47 14 94 17 105 7 26 -35 89 -62 93 -11 2 -31 -6 -45 -17z"/>
<path d="M3432 1260 c-32 -13 -47 -31 -55 -62 -12 -45 3 -86 38 -108 45 -28
77 -25 115 10 28 26 31 34 28 76 -2 37 -9 51 -28 65 -33 24 -69 31 -98 19z"/>
<path d="M8210 1259 c-41 -16 -60 -45 -60 -88 0 -52 46 -101 93 -101 99 1 133
148 42 185 -39 17 -41 17 -75 4z"/>
<path d="M610 1237 c0 -24 24 -37 71 -37 33 0 49 -5 53 -16 3 -9 6 -172 6
-364 l0 -348 -26 -31 c-14 -17 -33 -31 -43 -31 -23 0 -61 -28 -61 -46 0 -12
27 -14 154 -14 97 0 157 4 161 10 10 17 -14 39 -54 50 -67 18 -71 34 -71 318
0 152 4 253 10 257 5 3 12 -7 15 -22 4 -15 13 -43 21 -61 8 -18 14 -40 14 -50
0 -9 7 -26 15 -36 8 -11 15 -29 15 -40 0 -12 7 -30 15 -40 8 -11 15 -28 15
-37 0 -10 6 -30 14 -46 27 -54 46 -104 46 -121 0 -9 7 -26 15 -36 8 -11 15
-29 15 -40 0 -12 7 -30 15 -40 8 -11 15 -30 15 -42 0 -12 10 -28 23 -37 47
-31 61 -1 127 278 7 28 16 55 20 60 4 6 10 29 14 53 3 24 10 51 15 60 11 21
29 92 41 156 5 27 16 56 24 65 7 9 16 25 18 36 2 11 3 -126 2 -304 -1 -302 -3
-325 -20 -338 -10 -7 -29 -12 -44 -11 -31 2 -50 -8 -50 -28 0 -12 34 -14 215
-14 208 0 215 1 215 20 0 11 -3 20 -7 21 -5 1 -27 2 -51 3 -25 1 -47 8 -53 17
-11 17 -12 759 -1 776 4 6 30 13 57 15 43 3 50 6 53 26 l3 22 -166 0 -165 0
-7 -30 c-3 -17 -10 -33 -14 -36 -5 -3 -9 -20 -9 -37 0 -18 -6 -44 -14 -58 -7
-14 -16 -47 -20 -72 -4 -26 -11 -49 -17 -52 -5 -4 -9 -20 -9 -36 0 -16 -6 -44
-13 -62 -8 -18 -17 -50 -21 -72 -4 -22 -12 -45 -16 -50 -5 -6 -10 -26 -12 -45
-5 -51 -19 -43 -44 25 -11 33 -26 73 -32 88 -7 16 -12 34 -12 42 0 8 -4 16 -9
20 -5 3 -13 20 -17 38 -6 30 -11 43 -48 129 -9 20 -16 41 -16 47 0 6 -6 25
-14 43 -8 18 -22 52 -32 76 l-17 42 -154 0 c-119 0 -153 -3 -153 -13z"/>
<path d="M2297 1243 c-13 -13 16 -33 49 -33 l34 0 0 -409 0 -410 -42 -8 c-86
-17 -42 -28 125 -31 141 -2 167 0 167 12 0 10 -13 16 -42 18 l-43 3 -3 433 -2
432 -118 0 c-65 0 -122 -3 -125 -7z"/>
<path d="M2950 1235 c0 -8 3 -15 8 -16 4 -1 22 -2 40 -4 18 -1 35 -5 38 -7 2
-3 3 -74 2 -158 l-3 -152 -27 25 c-88 82 -219 39 -279 -92 -11 -25 -25 -54
-30 -63 -12 -23 -12 -213 0 -236 6 -9 20 -38 32 -65 31 -64 81 -112 133 -127
56 -15 99 -6 141 31 33 30 34 30 37 7 3 -22 6 -23 126 -26 102 -2 122 0 122
12 0 10 -13 16 -42 18 l-43 3 -5 430 -5 430 -122 3 c-105 2 -123 0 -123 -13z
m7 -330 c35 -24 59 -85 72 -180 11 -77 11 -103 -3 -178 -27 -153 -95 -212
-138 -119 -40 85 -32 400 11 461 26 35 29 36 58 16z"/>
<path d="M5837 1243 c-13 -13 16 -33 49 -33 l34 0 0 -410 0 -410 -22 -4 c-13
-3 -32 -7 -43 -8 -11 -2 -19 -8 -18 -13 2 -6 65 -11 153 -13 126 -2 150 0 150
12 0 9 -12 16 -27 18 l-28 3 -3 170 c-3 142 0 180 15 228 22 72 80 143 108
133 40 -12 45 -48 45 -292 l0 -232 -30 -7 c-16 -4 -30 -13 -30 -21 0 -11 26
-14 140 -14 115 0 140 3 140 14 0 9 -12 16 -27 18 l-28 3 -5 225 c-5 241 -11
270 -62 317 -70 65 -211 41 -241 -40 -4 -10 -11 -15 -17 -12 -6 4 -10 78 -10
191 l0 184 -118 0 c-65 0 -122 -3 -125 -7z"/>
<path d="M7400 1236 c0 -17 30 -29 51 -21 38 14 39 2 37 -421 l-3 -409 -42 -3
c-29 -2 -43 -8 -43 -18 0 -12 27 -14 155 -14 131 0 155 2 155 15 0 9 -9 15
-23 15 -38 0 -47 19 -47 98 0 74 20 132 46 132 12 0 37 -26 48 -50 3 -8 15
-28 26 -45 22 -34 50 -93 50 -106 0 -5 -11 -15 -25 -21 -14 -6 -25 -17 -25
-25 0 -10 31 -13 150 -13 115 0 150 3 150 13 0 7 -13 18 -29 24 -28 10 -85 85
-117 153 -4 8 -11 17 -14 20 -4 3 -13 17 -21 32 -8 14 -31 54 -52 87 l-39 61
52 65 c57 72 93 101 130 106 14 2 26 12 28 22 3 15 -8 17 -117 17 -66 0 -122
-4 -125 -9 -7 -11 13 -28 39 -33 30 -5 31 -48 1 -83 -14 -16 -49 -61 -78 -102
-29 -40 -59 -73 -65 -73 -10 0 -13 67 -13 300 l0 300 -120 0 c-97 0 -120 -3
-120 -14z"/>
<path d="M3807 1184 c-4 -4 -7 -33 -7 -64 0 -51 -4 -62 -35 -98 -20 -22 -54
-47 -76 -56 -48 -20 -50 -48 -4 -56 l30 -5 6 -225 c3 -124 9 -236 14 -250 14
-45 55 -79 111 -91 115 -26 182 27 204 159 19 116 19 117 -12 120 -28 3 -28 3
-28 -58 0 -112 -61 -194 -108 -146 -14 14 -17 48 -20 221 -3 113 -1 220 2 239
7 35 7 35 64 38 45 2 58 7 60 21 3 14 -5 17 -50 17 -80 0 -81 1 -76 126 l3
109 -35 3 c-20 2 -39 0 -43 -4z"/>
<path d="M1877 959 c-123 -29 -190 -154 -119 -222 33 -32 70 -35 103 -8 30 24
30 80 0 110 -24 24 -25 34 -11 62 8 15 21 19 60 19 41 0 52 -4 70 -27 17 -22
20 -38 18 -97 -3 -69 -4 -71 -33 -80 -119 -36 -215 -98 -246 -157 -48 -95 -5
-195 95 -220 60 -15 125 -4 167 27 33 24 34 24 49 6 18 -21 71 -42 109 -42 63
0 131 80 131 154 0 71 -49 49 -59 -26 -5 -34 -10 -43 -26 -43 -19 0 -20 8 -25
215 -4 153 -9 220 -18 230 -7 8 -20 24 -30 35 -27 33 -63 51 -120 64 -60 12
-62 12 -115 0z m121 -406 l3 -121 -30 -21 c-36 -26 -53 -26 -75 -2 -21 23 -31
111 -19 166 7 30 19 48 52 73 24 18 49 31 55 29 7 -2 12 -46 14 -124z"/>
<path d="M4310 956 c-100 -33 -160 -105 -189 -228 -53 -224 117 -439 306 -388
91 25 162 101 196 211 27 90 17 183 -30 274 -30 57 -107 120 -163 133 -60 14
-73 14 -120 -2z m125 -81 c18 -36 20 -60 20 -225 0 -183 -9 -241 -39 -262 -14
-10 -68 -10 -83 0 -47 30 -70 291 -37 428 21 90 34 106 83 102 31 -3 39 -9 56
-43z"/>
<path d="M6973 956 c-63 -20 -103 -54 -124 -104 -22 -50 -19 -69 18 -112 64
-77 165 14 103 93 -40 50 -20 87 46 87 65 0 84 -21 91 -106 6 -77 -7 -104 -50
-104 -12 0 -31 -7 -41 -15 -11 -8 -26 -15 -33 -15 -18 0 -115 -61 -134 -84 -9
-11 -24 -42 -34 -68 -16 -45 -16 -50 1 -95 23 -60 45 -79 112 -94 61 -14 132
-2 165 29 17 15 21 15 67 -11 76 -43 144 -31 189 32 28 39 31 144 4 139 -12
-2 -22 -22 -31 -61 -13 -53 -34 -74 -44 -44 -2 6 -5 91 -7 187 -2 186 -10 236
-43 281 -42 57 -175 91 -255 65z m137 -401 c0 -113 -1 -117 -26 -140 -33 -30
-53 -31 -82 -5 -19 18 -22 31 -22 98 0 58 5 84 19 106 21 32 56 54 89 55 22 1
22 -1 22 -114z"/>
<path d="M3320 936 c0 -7 14 -16 30 -20 l30 -6 -2 -262 -3 -263 -27 -3 c-16
-2 -28 -9 -28 -18 0 -11 26 -14 150 -14 127 0 150 2 150 15 0 9 -9 15 -22 15
-51 0 -51 0 -51 281 0 145 -2 270 -5 277 -6 18 -222 17 -222 -2z"/>
<path d="M8095 940 c-6 -9 33 -30 55 -30 18 0 21 -46 18 -280 l-3 -235 -31
-10 c-67 -22 -39 -30 109 -33 123 -2 147 0 147 12 0 9 -11 16 -27 18 l-28 3
-5 280 -5 280 -112 3 c-69 2 -114 -1 -118 -8z"/>
</g>
</svg>
