<?xml version="1.0" standalone="no"?>
<!DOCTYPE svg PUBLIC "-//W3C//DTD SVG 20010904//EN"
 "http://www.w3.org/TR/2001/REC-SVG-20010904/DTD/svg10.dtd">
<svg version="1.0" xmlns="http://www.w3.org/2000/svg"
 width="300.000000pt" height="50.000000pt" viewBox="0 0 300.000000 50.000000"
 preserveAspectRatio="xMidYMid meet">
<metadata>
Created by potrace 1.10, written by Peter Selinger 2001-2011
</metadata>
<g transform="translate(0.000000,50.000000) scale(0.100000,-0.100000)"
fill="#dcdcdc" stroke="none">
<path d="M1764 411 c-40 -25 -64 -77 -64 -141 0 -91 53 -160 122 -160 31 0 84
41 93 73 4 12 9 30 11 40 11 36 -13 15 -25 -23 -13 -45 -43 -70 -83 -70 -39 0
-48 25 -48 140 0 113 9 140 45 140 33 0 61 -30 76 -79 7 -23 16 -41 21 -41 4
0 8 32 8 70 0 72 -4 82 -25 53 -11 -15 -14 -15 -36 0 -31 22 -57 21 -95 -2z
m-25 -143 c-1 -46 -3 -55 -8 -33 -6 29 -3 95 5 95 2 0 3 -28 3 -62z"/>
<path d="M2204 420 c-5 -5 -8 -30 -6 -55 5 -59 28 -61 34 -2 7 60 -4 81 -28
57z"/>
<path d="M205 410 c4 -6 15 -8 26 -5 18 6 19 0 19 -125 0 -130 0 -131 -25
-140 -38 -15 -30 -20 30 -20 54 0 74 13 35 23 -18 5 -20 13 -19 104 l0 98 42
-113 c24 -63 47 -114 52 -114 6 1 27 61 47 134 l37 133 -2 -125 c-2 -110 -4
-125 -19 -125 -9 0 -20 -4 -24 -8 -4 -4 27 -7 69 -7 42 0 77 4 77 9 0 5 -9 7
-20 4 -19 -5 -20 0 -20 137 0 137 1 141 20 135 11 -4 20 -2 20 4 0 7 -22 11
-54 11 l-55 0 -14 -52 c-9 -29 -21 -75 -29 -103 l-14 -50 -38 103 -39 102 -54
0 c-35 0 -52 -4 -48 -10z m95 -46 c0 -8 -4 -12 -10 -9 -5 3 -10 13 -10 21 0 8
5 12 10 9 6 -3 10 -13 10 -21z m180 11 c0 -8 -2 -15 -4 -15 -2 0 -6 7 -10 15
-3 8 -1 15 4 15 6 0 10 -7 10 -15z"/>
<path d="M783 413 c15 -4 17 -19 17 -143 0 -124 -2 -139 -17 -143 -10 -3 9 -5
42 -5 33 0 52 2 43 5 -16 4 -18 20 -18 149 l0 144 -42 -1 c-24 -1 -35 -3 -25
-6z"/>
<path d="M998 413 c20 -4 22 -10 22 -59 0 -54 0 -54 -22 -40 -30 19 -62 6 -82
-33 -43 -83 17 -196 82 -155 12 8 22 10 22 4 0 -5 19 -9 43 -9 23 1 34 3 25 6
-16 4 -18 20 -18 149 l0 144 -47 -1 c-27 -1 -38 -4 -25 -6z m10 -134 c28 -53
-6 -175 -40 -141 -14 14 -18 125 -5 155 9 24 28 17 45 -14z"/>
<path d="M1137 413 c-13 -12 -7 -41 10 -47 21 -8 48 17 40 38 -6 16 -38 22
-50 9z"/>
<path d="M1963 413 c15 -4 17 -19 17 -143 0 -124 -2 -139 -17 -143 -10 -3 7
-5 37 -5 30 0 49 2 43 5 -21 8 -17 136 5 163 31 38 42 17 42 -75 0 -57 -4 -85
-12 -88 -7 -3 10 -5 37 -5 28 0 44 2 38 5 -9 3 -13 29 -13 79 0 66 -3 78 -24
99 -27 27 -51 25 -76 -6 -14 -17 -15 -13 -12 51 l4 70 -44 -1 c-24 -1 -35 -3
-25 -6z"/>
<path d="M2483 413 c15 -4 17 -19 17 -143 0 -124 -2 -139 -17 -143 -10 -3 9
-5 42 -5 33 0 52 2 42 5 -14 4 -18 13 -17 41 1 21 2 85 1 145 l-1 107 -42 -1
c-24 -1 -35 -3 -25 -6z"/>
<path d="M2724 405 c-4 -9 0 -23 8 -31 20 -20 50 -7 46 20 -4 26 -45 35 -54
11z"/>
<path d="M1270 376 c0 -15 -11 -33 -26 -45 -20 -15 -22 -21 -10 -21 13 0 16
-13 16 -84 0 -55 4 -87 13 -93 25 -20 47 -22 66 -5 22 19 39 82 22 82 -6 0
-11 -9 -11 -21 0 -11 -5 -29 -11 -40 -8 -16 -13 -18 -25 -8 -10 8 -14 34 -14
90 0 77 0 78 28 82 l27 4 -28 2 c-28 1 -29 2 -22 41 6 33 4 40 -9 40 -10 0
-16 -9 -16 -24z"/>
<path d="M621 317 c-38 -19 -49 -43 -28 -64 13 -14 19 -15 29 -5 10 10 10 17
0 32 -10 17 -10 21 3 26 26 10 45 -4 45 -33 0 -23 -7 -31 -40 -45 -66 -27 -79
-88 -24 -108 20 -8 32 -7 50 5 13 8 24 11 24 6 0 -16 38 -19 59 -4 21 14 29
53 11 53 -5 0 -10 -9 -10 -20 0 -11 -4 -20 -10 -20 -6 0 -10 31 -10 73 0 58
-4 77 -17 89 -27 24 -55 29 -82 15z m51 -129 c-5 -52 -16 -66 -37 -48 -19 16
-19 40 1 68 25 36 40 28 36 -20z"/>
<path d="M1428 314 c-36 -19 -48 -43 -48 -97 0 -113 114 -141 157 -39 35 83
-38 175 -109 136z m57 -94 c0 -75 -2 -85 -19 -88 -27 -6 -36 15 -36 85 0 77 7
95 34 91 20 -3 21 -9 21 -88z"/>
<path d="M2323 320 c-33 -13 -49 -49 -30 -67 22 -22 39 -7 32 28 -6 26 -4 29
18 29 24 0 37 -16 37 -45 0 -7 -21 -23 -46 -35 -66 -33 -82 -90 -29 -110 25
-10 65 -3 65 11 0 5 11 2 25 -7 24 -16 27 -16 45 1 11 10 20 28 19 39 0 20 -1
20 -9 -1 -18 -44 -31 -25 -29 40 3 81 -5 103 -43 116 -17 6 -31 11 -32 10 -1
0 -11 -4 -23 -9z m57 -129 c0 -39 -20 -68 -40 -56 -17 11 -12 73 8 84 28 17
32 13 32 -28z"/>
<path d="M1118 311 c10 -6 14 -33 14 -91 0 -58 -4 -85 -14 -91 -8 -5 8 -8 42
-8 30 1 47 3 38 6 -16 4 -18 17 -18 99 l0 94 -37 0 c-25 0 -33 -3 -25 -9z"/>
<path d="M2598 313 c18 -7 15 -22 -14 -61 -16 -20 -23 -37 -17 -41 6 -3 18
-21 28 -40 14 -28 14 -35 3 -42 -8 -5 8 -8 42 -8 30 0 49 3 43 6 -7 2 -29 31
-48 64 -36 58 -36 59 -18 83 10 14 27 29 38 35 16 8 12 10 -25 10 -25 -1 -39
-3 -32 -6z"/>
<path d="M2713 313 c15 -4 17 -17 17 -93 0 -76 -2 -89 -17 -93 -10 -3 7 -5 37
-6 35 0 50 2 41 8 -10 7 -13 31 -12 100 l2 91 -43 -1 c-24 -1 -35 -3 -25 -6z"/>
</g>
</svg>
