<?xml version="1.0" standalone="no"?>
<!DOCTYPE svg PUBLIC "-//W3C//DTD SVG 20010904//EN"
 "http://www.w3.org/TR/2001/REC-SVG-20010904/DTD/svg10.dtd">
<svg version="1.0" xmlns="http://www.w3.org/2000/svg"
 width="900.000000pt" height="210.000000pt" viewBox="0 0 900.000000 210.000000"
 preserveAspectRatio="xMidYMid meet">
<metadata>
Created by potrace 1.10, written by Peter Selinger 2001-2011
</metadata>
<g transform="translate(0.000000,210.000000) scale(0.100000,-0.100000)"
fill="#ffffff" stroke="none">
<path d="M124 1928 c-3 -4 0 -25 5 -45 13 -47 14 -1324 2 -1401 -4 -29 -5 -55
0 -57 15 -10 6891 -5 6907 4 15 9 15 10 -3 18 -11 4 -427 7 -925 7 -498 -1
-1103 -1 -1345 -2 -242 0 -530 0 -640 0 -183 1 -691 0 -732 -1 -10 0 -72 0
-138 0 -386 1 -1686 2 -2060 1 -242 -1 -563 0 -713 2 -241 2 -275 5 -290 20
-15 15 -18 56 -22 389 -3 205 -3 515 0 690 6 356 0 332 85 342 27 3 1959 5
4292 3 4057 -3 4243 -4 4260 -21 17 -17 18 -60 21 -702 l2 -684 -21 -15 c-12
-8 -27 -12 -34 -10 -7 3 -15 1 -19 -4 -3 -5 -184 -8 -421 -7 -228 2 -418 -2
-421 -6 -3 -5 -18 -9 -34 -9 -16 0 -42 -11 -58 -25 -17 -14 -35 -25 -42 -25
-11 0 -99 -54 -195 -120 -16 -12 -52 -35 -79 -53 -28 -18 -61 -40 -75 -49 -14
-10 -50 -30 -79 -45 l-54 -28 -19 25 c-11 14 -27 33 -35 43 -7 9 -14 20 -14
23 0 8 -29 75 -41 94 -5 8 -14 26 -19 40 -16 40 -38 74 -49 78 -19 6 -11 -32
19 -92 17 -32 30 -63 30 -69 0 -6 6 -18 13 -26 13 -16 53 -108 71 -163 3 -10
12 -18 20 -18 8 0 70 37 138 83 67 46 152 101 188 122 36 22 71 45 78 52 7 7
18 13 24 13 5 0 27 14 48 30 21 17 42 30 48 30 6 0 12 3 14 8 1 4 18 17 36 30
l33 23 494 -3 c325 -2 495 0 495 7 0 6 0 159 0 340 -1 461 0 1116 3 1143 l2
22 -4373 3 c-2406 1 -4376 -1 -4378 -5z"/>
<path d="M8188 1471 c-76 -6 -90 -10 -104 -29 -9 -13 -24 -30 -33 -40 -19 -19
-137 -164 -161 -199 -9 -11 -24 -23 -35 -25 -19 -3 -20 2 -15 67 3 39 5 104 5
145 l0 75 -85 0 -85 0 0 -335 0 -335 88 -3 88 -3 -3 88 c-3 78 -1 90 18 109
11 11 28 31 36 43 13 18 22 22 42 17 14 -3 26 -11 26 -17 0 -10 39 -77 92
-158 10 -14 23 -36 30 -49 13 -26 24 -29 136 -36 77 -5 82 -4 82 15 0 10 -21
47 -47 82 -27 34 -52 70 -58 79 -24 41 -120 175 -136 191 -32 30 -41 18 148
209 58 59 84 92 80 102 -4 9 -10 15 -14 14 -4 0 -47 -4 -95 -7z"/>
<path d="M430 1468 c-1 -2 -1 -153 -2 -337 0 -217 3 -336 10 -340 5 -3 41 -4
79 -1 l68 5 -3 100 c-1 55 -8 151 -14 213 -6 61 -8 115 -5 118 13 14 55 -26
62 -58 6 -31 40 -126 70 -193 7 -16 19 -46 26 -65 18 -50 24 -55 80 -56 58 -1
54 -6 119 161 17 44 34 87 39 95 5 9 12 34 15 57 5 30 14 43 32 52 34 15 39
-3 26 -92 -6 -40 -12 -130 -14 -202 l-3 -130 75 0 75 0 5 325 c3 186 1 330 -4
338 -6 9 -34 12 -95 10 l-86 -3 -17 -35 c-9 -19 -26 -55 -37 -80 -29 -68 -71
-162 -83 -186 -5 -12 -13 -37 -17 -55 -5 -27 -12 -34 -30 -34 -19 0 -26 10
-42 60 -11 33 -34 89 -50 125 -17 36 -36 79 -43 95 -7 17 -21 48 -32 70 l-19
40 -92 3 c-51 1 -93 1 -93 0z"/>
<path d="M1508 1421 c-12 -25 -27 -59 -33 -76 -13 -31 -33 -79 -62 -142 -18
-41 -39 -89 -60 -140 -7 -18 -20 -47 -27 -65 -8 -18 -30 -66 -50 -107 -54
-109 -53 -110 63 -102 80 6 78 5 103 81 l15 45 150 3 151 3 16 -43 c8 -24 16
-52 18 -63 3 -18 13 -21 88 -26 116 -8 118 -5 69 101 -48 103 -61 131 -84 190
-10 25 -24 61 -33 80 -15 34 -29 68 -59 140 -8 19 -21 48 -29 63 -8 16 -14 36
-14 46 0 9 -6 26 -14 36 -11 16 -28 19 -101 20 l-87 2 -20 -46z m119 -139 c6
-4 14 -25 18 -47 4 -22 21 -68 37 -103 43 -94 41 -96 -72 -96 -110 0 -115 4
-79 81 32 70 37 84 45 123 10 52 21 61 51 42z"/>
<path d="M2059 1458 c-2 -7 -3 -160 -1 -341 l3 -327 227 2 227 3 1 62 c1 36
-3 66 -10 72 -6 5 -62 5 -136 1 -93 -7 -128 -6 -136 3 -7 8 -9 90 -5 267 4
168 3 258 -4 262 -18 13 -162 9 -166 -4z"/>
<path d="M2600 1455 c-4 -102 3 -661 8 -665 4 -3 93 -3 198 1 188 7 192 7 254
38 106 53 156 119 179 239 9 48 9 76 0 125 -23 115 -77 186 -184 236 -58 28
-65 29 -257 33 -132 2 -198 0 -198 -7z m336 -131 c120 -40 176 -169 124 -287
-38 -86 -105 -121 -224 -115 l-69 3 1 200 c0 110 1 203 1 208 2 13 117 7 167
-9z"/>
<path d="M3349 1463 c-4 -51 1 -666 5 -671 8 -7 146 -6 154 2 7 8 4 654 -3
667 -7 11 -155 12 -156 2z"/>
<path d="M3593 1454 c-2 -6 -3 -36 -1 -65 l3 -54 103 3 103 2 -2 -270 c-1
-151 2 -274 7 -279 5 -4 45 -5 88 -2 l80 6 -3 225 c-1 124 -4 240 -8 258 -9
54 6 63 106 55 104 -7 114 0 109 78 l-3 52 -289 1 c-204 1 -290 -2 -293 -10z"/>
<path d="M4480 1461 c-126 -20 -238 -129 -267 -258 -13 -57 -14 -77 -3 -137 7
-39 19 -78 27 -87 7 -8 13 -20 13 -26 0 -5 19 -30 43 -55 85 -90 221 -133 345
-108 78 15 123 37 181 87 58 49 85 95 106 179 16 62 17 78 6 120 -6 27 -15 60
-18 74 -6 25 -47 85 -88 126 -11 12 -46 35 -78 52 -47 25 -73 32 -140 36 -45
2 -102 1 -127 -3z m136 -137 c176 -59 197 -294 34 -382 -97 -52 -209 -4 -262
111 -47 101 14 228 130 269 26 9 47 17 48 17 0 1 23 -6 50 -15z"/>
<path d="M5495 1464 c-76 -11 -168 -68 -219 -136 -47 -62 -66 -122 -66 -206 0
-210 203 -374 412 -332 84 16 218 86 218 114 0 13 -88 106 -101 106 -4 0 -22
-13 -40 -29 -54 -50 -134 -62 -210 -33 -15 6 -44 31 -65 57 -36 45 -38 49 -38
125 -1 77 0 79 40 126 29 35 54 52 92 65 48 16 56 17 100 2 26 -9 64 -31 84
-51 l37 -35 50 54 c28 30 51 59 51 64 0 15 -27 36 -95 72 -48 25 -75 32 -140
36 -44 3 -93 3 -110 1z"/>
<path d="M5930 1465 c-4 -40 0 -668 4 -672 9 -9 150 -3 160 7 4 4 4 58 -2 122
-6 66 -6 117 -1 122 5 6 72 10 150 11 l140 1 -2 -129 c-1 -70 2 -131 7 -135 5
-5 44 -6 87 -3 l79 6 1 332 c2 269 -1 334 -11 338 -8 3 -47 5 -88 5 -52 0 -74
-4 -75 -12 0 -7 0 -72 1 -143 l1 -131 -140 1 c-78 1 -145 5 -150 11 -5 5 -5
59 1 127 5 65 7 124 4 132 -4 12 -25 15 -86 15 -44 0 -80 -2 -80 -5z"/>
<path d="M6679 1458 c-2 -7 -2 -69 1 -138 l5 -125 48 -3 c27 -2 54 1 60 7 8 6
12 51 11 138 l0 128 -61 3 c-43 2 -62 -1 -64 -10z"/>
<path d="M7145 1457 c-8 -4 -15 -16 -15 -27 0 -10 -6 -31 -14 -47 -8 -15 -21
-45 -30 -65 -16 -37 -33 -77 -64 -148 -8 -19 -21 -48 -28 -65 -29 -69 -59
-135 -95 -211 -55 -116 -56 -115 44 -107 45 3 86 9 91 14 5 4 17 32 27 61 l18
53 146 3 c158 3 175 -2 175 -45 0 -13 7 -37 15 -53 15 -28 19 -30 78 -30 34 0
72 -3 84 -6 27 -8 42 20 25 45 -7 9 -17 26 -22 39 -5 13 -21 46 -34 75 -13 29
-45 104 -71 167 -26 63 -53 129 -60 145 -7 17 -20 46 -28 65 -8 19 -22 52 -31
73 -9 21 -16 44 -16 52 0 18 4 17 -98 19 -45 1 -89 -2 -97 -7z m109 -179 c18
-70 64 -195 79 -216 16 -21 1 -25 -99 -26 -108 -2 -117 4 -91 57 27 56 47 105
47 116 0 6 8 26 17 46 17 35 41 46 47 23z"/>
<path d="M8405 1460 c-4 -7 -9 -535 -5 -660 0 -7 31 -10 86 -8 l85 3 1 335 0
335 -80 3 c-48 2 -83 -1 -87 -8z"/>
</g>
</svg>
